<?xml version="1.0" encoding="UTF-8"?>
<svg width="246px" height="218px" viewBox="0 0 246 218" version="1.1" xmlns="http://www.w3.org/2000/svg" xmlns:xlink="http://www.w3.org/1999/xlink">
    <!-- Generator: Sketch 43.2 (39069) - http://www.bohemiancoding.com/sketch -->
    <title>player</title>
    <desc>Created with Sketch.</desc>
    <defs></defs>
    <g id="doc" stroke="none" stroke-width="1" fill="none" fill-rule="evenodd">
        <g id="player" fill-rule="nonzero">
            <g id="Group" transform="translate(123.000000, 109.000000) rotate(-180.000000) translate(-123.000000, -109.000000) translate(0.000000, -0.000000)">
                <g id="root" transform="translate(45.949061, 0.143627)">
                    <polygon id="leg_root" fill="#1A1A1A" points="147.799098 48.6212282 149.926249 34.3120174 149.926249 23.0127208 140.349392 26.7724751 128.79397 9.78607272 103.682705 3.34181112 80.2423453 11.5953031 55.234545 0.63471877 32.065957 11.5953031 22.3204702 26.7724751 0.702231851 23.0127208 0.702231851 34.3120174 2.14999238 46.2407456 32.065957 74.3837273 78.214117 87.5538327 120.610035 75.2107676 132.799126 67.1820948"></polygon>
                    <path d="M86.931253,56.4243703 C86.931253,60.9663422 83.249257,64.6483399 78.707284,64.6483399 C74.165312,64.6483399 70.483314,60.9663422 70.483314,56.4243703 C70.483314,51.8823983 74.165312,48.2004006 78.707284,48.2004006 C83.249257,48.2004006 86.931253,51.8823983 86.931253,56.4243703 Z" id="origin_base" fill="#00FF00"></path>
                </g>
                <g id="bulb" transform="translate(0.000000, 47.000000)">
                    <g id="onion" transform="translate(8.000000, 0.000000)">
                        <polygon id="path3820" fill="#1A1A1A" points="100 0.5 36 8 8 26 0 55 10 87 22.5 107 48.5 126 81 142.5 92.5 158.5 90.8574219 168.525391 94.7050781 167.384766 101.216797 160.456055 106.089844 165.861328 111.75 167.384766 121.411892 162.60284 130.09082 168.525391 134.80957 170.495117 134.80957 160.456055 147 142.5 180 119 218 77.5 223.5 35 208 11.5 124 5.5"></polygon>
                        <polygon id="path3822" fill="#333333" points="56.5 2 39.5 20 26 48 25.5 71.5 42.5 102.5 71 125.5 90.5 139.5 97 149.5 88.5 132.5 49 95.5 35 68.5 47 35 78 11.5 60 3.5"></polygon>
                        <polygon id="path3824" fill="#333333" points="166 13.5 196 21 208.5 50 208.5 70 192 96.5 168 117.5 146 129.5 138.5 141.5 145.5 126.5 166 112 185.5 94.5 193 71.5 190 46 166 28 142 8 134 3.5 152 9"></polygon>
                        <polygon id="path3826" fill="#333333" points="97 7.5 78.5 31 70 65.5 83.5 102.5 105.5 128.5 113 151.5 107.5 127 89.5 99.5 85.5 68.5 99 36.5 104 13"></polygon>
                        <polygon id="path3828" fill="#333333" points="122.5 11.5 129 32 136.5 49 137.5 71 138 98 131.5 132.5 130.5 138.5 139 119 146 94.5 151.5 57.5 150 41.5 142 30.5 126 13.5"></polygon>
                    </g>
                    <g id="eyes" transform="translate(0.000000, 25.000000)">
                        <g id="g3850">
                            <polygon id="path3830" fill="#4E9A06" points="32 0 19.5 16 17 33.5 25 60.5 50.5 87.5 27.5 59 24 33.5 25.5 20.5"></polygon>
                            <polygon id="path3840" fill="#E5FF8B" points="21 19 0 34.5 24.5 53.5 22 33.5"></polygon>
                        </g>
                        <g id="g3854" transform="translate(51.000000, 8.000000)">
                            <polygon id="path3832" fill="#4E9A06" points="21.5 0 7 20.5 4 33.5 17.5 55.5 36.5 77 23.5 55 18 32 20 18"></polygon>
                            <polygon id="path3842" fill="#E5FF8B" points="18 14 14.5 27 19 54 0 36.5 9 18.5"></polygon>
                        </g>
                        <g id="g3858" transform="translate(110.000000, 12.000000)">
                            <polygon id="path3834" fill="#4E9A06" points="10.5 0.5 0.5 21.5 0.5 43 3 61.5 19 80.5 26 59.5 27.5 25.5 25 9"></polygon>
                            <polygon id="path3844" fill="#E5FF8B" points="14 9.5 6.5 30.5 14 65 26.5 34.5 21.5 18"></polygon>
                        </g>
                        <g id="g3862" transform="translate(156.000000, 8.000000)">
                            <polygon id="path3836" fill="#4E9A06" points="8.5 0 12.5 20 12.5 37 0.5 78 22 64.5 36.5 33 22 8"></polygon>
                            <polygon id="path3846" fill="#E5FF8B" points="17 17 20 35 17.5 63 39 41.5 44.5 28"></polygon>
                        </g>
                        <g id="g3866" transform="translate(203.000000, 6.000000)">
                            <polygon id="path3838" fill="#4E9A06" points="13.5 4.5 19.5 26.5 11.5 53.5 0 72.5 26.5 49 33.5 19 17 0.5"></polygon>
                            <polygon id="path3848" fill="#E5FF8B" points="23 13 27 27.5 24 46.5 42.5 25"></polygon>
                        </g>
                    </g>
                </g>
            </g>
        </g>
    </g>
</svg>