<?xml version="1.0" encoding="UTF-8" standalone="no"?>
<!DOCTYPE svg PUBLIC "-//W3C//DTD SVG 1.1//EN" "http://www.w3.org/Graphics/SVG/1.1/DTD/svg11.dtd">
<svg width="100%" height="100%" viewBox="0 0 265 324" version="1.1" xmlns="http://www.w3.org/2000/svg" xmlns:xlink="http://www.w3.org/1999/xlink" xml:space="preserve" xmlns:serif="http://www.serif.com/" style="fill-rule:evenodd;clip-rule:evenodd;stroke-linejoin:round;stroke-miterlimit:1.41421;">
    <g id="artboard" transform="matrix(1.01799,0,0,1.20464,0,113.203)">
        <rect x="0" y="-93.973" width="259.626" height="268.242" style="fill:none;"/>
        <g id="player" transform="matrix(-0.982323,6.35638e-16,-7.52179e-16,-0.830125,247.686,165.026)">
            <g id="root" transform="matrix(1.53075,9.86076e-32,1.97215e-31,1,6.97582,8.14363)">
                <g id="leg_root" transform="matrix(-0.777176,-5.95095e-16,8.32831e-16,-1.08765,133.847,91.5467)">
                    <path d="M147.799,48.621L149.926,34.312L149.926,23.013L140.349,26.772L128.794,9.786L103.683,3.342L80.242,11.595L55.235,0.635L32.066,11.595L22.32,26.772L0.702,23.013L0.702,34.312L2.15,46.241L32.066,74.384L78.214,87.554L120.61,75.211L132.799,67.182L147.799,48.621Z" style="fill:rgb(90,62,114);fill-rule:nonzero;"/>
                </g>
                <g id="__origin__root" transform="matrix(1,0,0,1,-5,-1)">
                    <path d="M86.931,56.424C86.931,60.966 83.249,64.648 78.707,64.648C74.165,64.648 70.483,60.966 70.483,56.424C70.483,51.882 74.165,48.2 78.707,48.2C83.249,48.2 86.931,51.882 86.931,56.424Z" style="fill:rgb(0,255,0);fill-rule:nonzero;"/>
                </g>
            </g>
            <g id="gun" transform="matrix(-1,-7.65714e-16,7.65714e-16,-1,256.143,316)">
                <path d="M118.641,61.721L108.202,70.676L104.727,85.935L105.604,102.392L124.262,115.5L147.143,115.5L161.819,105.515L159.282,85.303L147.143,73.783L132.486,57.459L124.262,42.506L118.641,61.721Z" style="fill:rgb(104,72,132);"/>
                <g id="__origin__gun" transform="matrix(1,0,0,1,-3,-4)">
                    <circle cx="134.656" cy="101.602" r="3.17" style="fill:rgb(77,132,72);"/>
                </g>
            </g>
            <g id="bulb" transform="matrix(1,0,8.22544e-32,1.12164,2.84217e-14,47.6374)">
                <g id="onion" transform="matrix(1,0,0,1,8,0)">
                    <path id="path3820" d="M70,-12.65L36,8L8,26L0,55L10,87L22.5,107L48.5,126L81,142.5L115.656,149.825L147,142.5L180,119L218,77.5L223.5,35L208,11.5L161.645,-11.809L110.869,-15.586L70,-12.65Z" style="fill:rgb(104,72,132);fill-rule:nonzero;"/>
                    <path id="path3822" d="M56.5,2L39.5,20L26,48L25.5,71.5L42.5,102.5L71,125.5L90.5,139.5L97,149.5L88.5,132.5L49,95.5L35,68.5L47,35L78,11.5L60,3.5L56.5,2Z" style="fill:rgb(59,41,75);fill-rule:nonzero;"/>
                    <path id="path3824" d="M166,13.5L196,21L208.5,50L208.5,70L192,96.5L168,117.5L146,129.5L138.5,141.5L145.5,126.5L166,112L185.5,94.5L193,71.5L190,46L166,28L142,8L134,3.5L152,9L166,13.5Z" style="fill:rgb(59,41,75);fill-rule:nonzero;"/>
                    <path id="path3826" d="M97,7.5L78.5,31L70,65.5L83.5,102.5L105.5,128.5L113,151.5L107.5,127L89.5,99.5L85.5,68.5L99,36.5L104,13L97,7.5Z" style="fill:rgb(59,41,75);fill-rule:nonzero;"/>
                    <path id="path3828" d="M122.5,11.5L129,32L136.5,49L137.5,71L138,98L131.5,132.5L130.5,138.5L139,119L146,94.5L151.5,57.5L150,41.5L142,30.5L126,13.5L122.5,11.5Z" style="fill:rgb(59,41,75);fill-rule:nonzero;"/>
                </g>
                <g id="eyes" transform="matrix(1,0,0,1,0,25)">
                    <g id="g3850">
                        <path id="path3830" d="M32,0L19.5,16L17,33.5L25,60.5L50.5,87.5L27.5,59L24,33.5L25.5,20.5L32,0Z" style="fill:rgb(7,177,169);fill-rule:nonzero;"/>
                        <path id="path3840" d="M21,19L0,34.5L24.5,53.5L22,33.5L21,19Z" style="fill:rgb(229,255,139);fill-rule:nonzero;"/>
                    </g>
                    <g id="g3854" transform="matrix(1,0,0,1,51,8)">
                        <path id="path3832" d="M21.5,0L7,20.5L4,33.5L17.5,55.5L36.5,77L23.5,55L18,32L20,18L21.5,0Z" style="fill:rgb(7,177,169);fill-rule:nonzero;"/>
                        <path id="path3842" d="M18,14L14.5,27L19,54L0,36.5L9,18.5L18,14Z" style="fill:rgb(229,255,139);fill-rule:nonzero;"/>
                    </g>
                    <g id="g3858" transform="matrix(1,0,0,1,110,12)">
                        <path id="path3834" d="M10.5,0.5L0.5,21.5L0.5,43L3,61.5L19,80.5L26,59.5L27.5,25.5L25,9L10.5,0.5Z" style="fill:rgb(7,177,169);fill-rule:nonzero;"/>
                        <path id="path3844" d="M14,9.5L6.5,30.5L14,65L26.5,34.5L21.5,18L14,9.5Z" style="fill:rgb(229,255,139);fill-rule:nonzero;"/>
                    </g>
                    <g id="g3862" transform="matrix(1,0,0,1,156,8)">
                        <path id="path3836" d="M8.5,0L12.5,20L12.5,37L0.5,78L22,64.5L36.5,33L22,8L8.5,0Z" style="fill:rgb(7,177,169);fill-rule:nonzero;"/>
                        <path id="path3846" d="M17,17L20,35L17.5,63L39,41.5L44.5,28L17,17Z" style="fill:rgb(229,255,139);fill-rule:nonzero;"/>
                    </g>
                    <g id="g3866" transform="matrix(1,0,0,1,203,6)">
                        <path id="path3838" d="M13.5,4.5L19.5,26.5L11.5,53.5L0,72.5L26.5,49L33.5,19L17,0.5L13.5,4.5Z" style="fill:rgb(7,177,169);fill-rule:nonzero;"/>
                        <path id="path3848" d="M23,13L27,27.5L24,46.5L42.5,25L23,13Z" style="fill:rgb(229,255,139);fill-rule:nonzero;"/>
                    </g>
                </g>
            </g>
        </g>
    </g>
</svg>
